<svg xmlns="http://www.w3.org/2000/svg" width="160" height="81" fill="none">
  <path fill="#FFFFFF" d="M29.329 47.678c-.037-.294-1.063-6.821-5.867-12.322-3.117-5.977-5.024-7.224-6.125-7.224-.586 0-1.1.293-1.43.807-1.063 1.613-1.467 3.63-1.613 4.694-1.43.476-4.51 1.76-5.794 4.877-.807 1.98-.99 2.934-1.137 3.557-.11.477-.11.55-.367.917l-.22.256c-1.21 1.504-.953 2.237.22 3.41L5.2 47.752c-.183.11-.256.367-.146.587.11.183.366.256.586.146l1.98-1.21c.11.11.074.074.147.184L6.373 48.96c-.147.184-.147.404.036.587.184.147.404.147.587-.037l1.247-1.393c.037.036.073.073.073.11.037.073.074.11.11.183l-.77 1.687c-.11.22 0 .477.184.55.22.11.476 0 .55-.183l.586-1.284c.404.477 1.027.844 1.944.844.147 0 .33-.037.513-.037 1.1-.147 2.274-.513 3.19-.88l-.183 3.594c0 .22.037.403.147.586.22.367.55.55.917.55.147 0 .257-.036.367-.073l6.894-2.677-2.897-1.137-3.264 1.284.147-2.934c.036-.587-.184-.953-.367-1.137-.257-.293-.623-.44-1.064-.44-.33 0-.623.11-.733.147-.733.33-2.163.917-3.41 1.063-.074.037-.147.037-.22.037-.294 0-.367-.073-.807-.77-.293-.477-.66-1.027-1.21-1.577-.184-.183-.514-.477-.734-.697.074-.11.147-.22.22-.293l.22-.293c.55-.697.66-1.137.77-1.797.11-.55.257-1.394.99-3.154 1.247-3.007 4.988-3.814 5.025-3.814.476-.11.806-.513.843-.99 0-.036.147-2.347 1.174-4.18.843.623 2.677 3.263 4.107 6.087.036.073.11.147.146.22 3.484 3.924 4.841 8.618 5.281 10.488l-.147.073 2.347.917c.147-.22.147-.367.147-.513Z"/>
  <path fill="#FFFFFF" d="M44.729 41.187a1.088 1.088 0 0 0-.514-.807c-1.393-.844-4.143-2.384-4.987-2.86-1.43-2.31-2.824-3.264-3.814-3.704.77-3.227-1.136-6.088-1.21-6.198a1.037 1.037 0 0 0-1.357-.33c-3.594 1.87-6.16 7.115-6.637 8.068-.147.147-.294.33-.404.477.477.623.844 1.21 1.247 1.833.257-.33.55-.697.844-1.063.073-.074.146-.184.183-.257.623-1.393 2.567-4.914 4.877-6.674.44 1.027.917 2.714.147 4.437-.183.367-.183.807.073 1.1.257.294.587.477.99.367.074 0 1.577.037 3.484 3.19.11.147.22.294.404.367.036.037 2.933 1.614 4.657 2.677-.037.587-.183 1.577-.77 2.237-.404.477-1.027.697-1.834.697h-.256c-4.181-.11-5.354-.147-5.464-.11-.147 0-.697.073-1.137.587-.22.256-.514.77-.404 1.54l.184 4.4-10.012-3.887-.403-.147c.22-.916.623-2.457 1.393-4.253-.33-.77-.77-1.54-1.246-2.347-1.87 3.777-2.347 6.93-2.384 7.15-.073.477.22.954.66 1.137l12.725 4.95c.11.074.257.074.367.074.22 0 .44-.073.623-.183.294-.22.477-.55.44-.917l-.256-5.94c.66 0 2.127.036 4.84.11h.184c1.43 0 2.53-.477 3.373-1.357 1.577-1.687 1.394-4.218 1.394-4.364ZM50.523 49.29V33.78h7.298c3.373 0 5.244 2.273 5.244 5.023 0 2.714-1.87 4.987-5.244 4.987h-3.96v5.538l-3.338-.037Zm9.131-10.524c0-1.32-.99-2.09-2.31-2.09h-3.52v4.18h3.483c1.357-.036 2.347-.806 2.347-2.09ZM63.91 43.644c0-3.264 2.42-5.904 5.83-5.904 3.374 0 5.647 2.493 5.647 6.16v.697H66.99c.22 1.394 1.32 2.494 3.227 2.494.953 0 2.273-.404 2.97-1.1l1.32 1.943c-1.1 1.027-2.897 1.577-4.62 1.577-3.374.073-5.978-2.274-5.978-5.867Zm5.83-3.484c-1.834 0-2.64 1.284-2.75 2.384h5.537c-.073-1.027-.844-2.384-2.787-2.384ZM78.14 46.467V40.6h-1.87v-2.567h1.87v-3.08h2.97v3.08h2.274V40.6H81.11v5.097c0 .734.367 1.247 1.027 1.247.44 0 .844-.183 1.027-.33l.623 2.274c-.44.403-1.246.733-2.457.733-2.126-.037-3.19-1.137-3.19-3.154ZM92.992 49.29v-6.857c0-1.54-.807-2.053-2.054-2.053-1.174 0-2.054.66-2.567 1.32v7.59h-2.97V33.78h2.97v5.683c.733-.843 2.09-1.724 3.96-1.724 2.457 0 3.668 1.357 3.668 3.558v7.994h-3.007ZM98.159 43.644c0-3.264 2.42-5.904 5.831-5.904 3.373 0 5.647 2.493 5.647 6.16v.697h-8.361c.22 1.394 1.32 2.494 3.227 2.494.954 0 2.274-.404 2.97-1.1l1.321 1.943c-1.1 1.027-2.897 1.577-4.621 1.577-3.41.073-6.014-2.274-6.014-5.867Zm5.831-3.484c-1.834 0-2.641 1.284-2.751 2.384h5.538c-.074-1.027-.807-2.384-2.787-2.384ZM118.55 49.291v-1.173c-.77.953-2.09 1.466-3.557 1.466-1.797 0-3.887-1.21-3.887-3.74 0-2.677 2.09-3.63 3.887-3.63 1.503 0 2.824.513 3.557 1.393v-1.43c0-1.137-.99-1.907-2.457-1.907-1.173 0-2.31.477-3.227 1.32l-1.174-2.053c1.394-1.21 3.154-1.76 4.914-1.76 2.567 0 4.951 1.026 4.951 4.253v7.261h-3.007Zm0-2.714v-1.393c-.513-.66-1.43-.99-2.384-.99-1.173 0-2.127.623-2.127 1.687 0 1.063.954 1.687 2.127 1.687.954 0 1.871-.33 2.384-.99ZM127.385 33.742h-2.97v15.549h2.97V33.742ZM130.945 46.467V40.6h-1.871v-2.567h1.871v-3.08h2.933v3.08h2.311V40.6h-2.311v5.097c0 .734.367 1.247 1.027 1.247.44 0 .844-.183 1.027-.33l.623 2.274c-.44.403-1.21.733-2.457.733-2.09-.037-3.153-1.137-3.153-3.154ZM145.796 49.29v-6.857c0-1.54-.806-2.053-2.053-2.053-1.174 0-2.054.66-2.567 1.32v7.59h-2.971V33.78h2.971v5.683c.733-.843 2.09-1.724 3.96-1.724 2.457 0 3.667 1.357 3.667 3.558v7.994h-3.007ZM154.966 48.594h-3.814v.66h3.814v-.66ZM154.929 45.257l-2.714 1.98h2.714v.66h-3.777v-.696l2.64-1.944h-2.64v-.66h3.777v.66ZM153.021 44.01c-1.174 0-1.981-.88-1.981-1.98 0-.77.404-1.247.844-1.54l.293.587c-.33.183-.55.55-.55.953 0 .733.587 1.32 1.394 1.32.77 0 1.393-.55 1.393-1.32 0-.404-.257-.77-.55-.953l.293-.587c.477.293.844.77.844 1.54 0 1.137-.77 1.98-1.98 1.98ZM148.768 34.953c0 .66-.55 1.21-1.21 1.21-.66 0-1.247-.55-1.247-1.21 0-.66.55-1.21 1.247-1.21.696 0 1.21.513 1.21 1.21Zm-2.164 0c0 .55.404.953.954.953.55 0 .916-.403.916-.953 0-.55-.366-.954-.916-.954s-.954.44-.954.954Zm.77.623h-.293v-1.21c.11-.037.257-.037.477-.037.22 0 .33.037.403.11.073.074.11.147.11.257 0 .147-.11.22-.257.293v.037c.11.037.184.147.22.293.037.184.074.257.11.294h-.293c-.037-.037-.073-.147-.11-.294-.037-.146-.11-.183-.257-.183h-.146l.036.44Zm0-.697h.147c.147 0 .293-.073.293-.183s-.073-.183-.256-.183c-.074 0-.11 0-.147.036l-.037.33Z"/>
</svg>
