<svg xmlns="http://www.w3.org/2000/svg" width="160" height="81" fill="none">
  <g fill="#FFFFFF" clip-path="url(#clip0_426_2937)">
    <path d="m21.8 38.776-1.627 3.691h4.638v1.807a10.703 10.703 0 0 1-3.856.635c-1.832 0-3.187-.408-4.064-1.223-.878-.815-1.316-2.061-1.316-3.738 0-1.598.403-2.817 1.21-3.655.806-.838 1.985-1.257 3.539-1.256a5.43 5.43 0 0 1 2.48.47c.62.333 1.094.886 1.327 1.551l4.937-.493a6.44 6.44 0 0 0-2.89-3.998 10.593 10.593 0 0 0-5.738-1.41 12.025 12.025 0 0 0-5.337 1.092 7.722 7.722 0 0 0-3.395 3.105 9.228 9.228 0 0 0-1.164 4.713c0 2.774.913 4.921 2.739 6.441 1.826 1.52 4.4 2.28 7.721 2.281a17.383 17.383 0 0 0 4.26-.512l.19-.432 3.898-8.947v-.123l-7.552.002ZM44.677 41.737v6.631h-2.392l-4.747-11.937a.536.536 0 0 0-.66-.322.523.523 0 0 0-.263.17.316.316 0 0 0-.05.07.638.638 0 0 0-.04.08L31.78 48.367h-5.137l.27-.624 2.501-5.74 3.54-8.129a4.525 4.525 0 0 1 8.298 0l3.426 7.864ZM67.3 31.581v16.786h-4.537v-9.78l-4.346 9.78h-3.62l-4.347-9.732v9.732h-4.473V31.582h5.573l5.147 11.425 5.126-11.425H67.3ZM69.343 48.367V31.582H85.12l-1.648 3.782h-9.286v2.563h9.286v3.782h-9.286v2.868h9.286l1.648 3.782-15.777.008Z"/>
    <path d="M96.826 36.637a2.668 2.668 0 0 0-1.223-1.423 4.876 4.876 0 0 0-2.258-.435 6.598 6.598 0 0 0-2.457.353 1.128 1.128 0 0 0-.834 1.034 1.055 1.055 0 0 0 .446.94 4.78 4.78 0 0 0 1.74.518l3.62.587c2.178.345 3.75.928 4.714 1.75a4.295 4.295 0 0 1 1.446 3.444 4.46 4.46 0 0 1-2.14 4.02c-1.426.91-3.534 1.364-6.322 1.363-2.789 0-4.917-.494-6.383-1.48a5.72 5.72 0 0 1-2.48-4.467h4.937a2.505 2.505 0 0 0 1.175 1.763c.852.426 1.8.621 2.75.564a6.402 6.402 0 0 0 2.61-.423 1.32 1.32 0 0 0 .918-1.2 1.037 1.037 0 0 0-.508-.916 4.711 4.711 0 0 0-1.75-.517l-2.985-.447c-2.305-.344-3.99-.947-5.055-1.81a4.322 4.322 0 0 1-1.599-3.55 4.236 4.236 0 0 1 2.21-3.782c1.473-.909 3.51-1.363 6.112-1.363 2.413 0 4.282.415 5.607 1.246a5.302 5.302 0 0 1 2.433 3.76l-4.724.47ZM117.451 35.367l1.653-3.782h-15.783v16.783h11.587l.226-.522 1.421-3.263h-8.392v-2.87h9.287v-3.781h-9.287v-2.565h9.288ZM134.358 41.737v6.631h-2.39l-4.75-11.937a.49.49 0 0 0-.089-.15.473.473 0 0 0-.119-.106.552.552 0 0 0-.595 0 .508.508 0 0 0-.119.106.49.49 0 0 0-.089.15l-4.748 11.937h-5.137l6.312-14.49a4.524 4.524 0 0 1 8.298 0l3.426 7.86ZM150.21 44.323l-1.761 4.044h-12.791V31.582h4.938v12.74h9.614Z"/>
  </g>
  <defs>
    <clipPath id="clip0_426_2937">
      <path fill="#fff" d="M10.541 28.3h140V52.7h-140z"/>
    </clipPath>
  </defs>
</svg>
