<svg xmlns="http://www.w3.org/2000/svg" width="80" height="81" fill="none"><path fill="#1B1B20" d="M74.025 13.187c-.063-.127-.237-.142-.395-.142h-7.622c-.252-.016-.379.047-.474.237-.269.458-1.059 1.802-2.118 3.589h-7.764a637.249 637.249 0 0 0 1.93-3.384c.094-.158.047-.268.03-.316a.26.26 0 0 0-.236-.126h-8.017a.36.36 0 0 0-.364.174c-.015.015-.87 1.502-2.102 3.636H15.665a1.87 1.87 0 0 0-1.866 1.866v13.63h-3.4c-.252 0-.442.126-.553.363-.063.11-1.66 2.941-2.72 4.79l-1.106 1.93c-.032.063-.08.142-.08.221 0 .048.017.08.032.127.048.079.143.126.27.126h7.541V59.53H24.22l4.11-7.13h3.116l-7.321 12.886h-3.226l1.756-3.036h-8.855v3.842a1.87 1.87 0 0 0 1.866 1.866h51.118a1.87 1.87 0 0 0 1.866-1.866V55.12h-9.234s-.284-.11-.569.332l-1.06 1.897h3.795c1.36 0 1.629.79.649 2.53-.601 1.06-2.23 4-2.23 4s-.522 1.408-2.292 1.408h-5.345v-2.657h3.7c.459 0 1.36.032 1.708-.616.364-.648 1.123-1.992 1.123-1.992H55.24c-1.297 0-1.565-1.139-1.123-1.93.443-.79 2.04-3.589 2.499-4.38.458-.79.759-1.343 2.292-1.343h9.756V22.816c2.973-5.17 5.218-9.076 5.265-9.17.095-.19.174-.333.095-.46Zm-46.85 52.099s.87-1.534 1.17-2.04c.301-.506.443-1.012-.41-.996H26.67s1.122-2.087 1.47-2.688c.696 0 1.771-.047 1.977.474.19-.332 4.458-7.605 4.458-7.605h3.052l-7.384 12.855h-3.067Zm4.333 0 7.51-12.855h2.989L34.67 65.286h-3.162Zm8.412 0v-2.119c0-.585-.19-.917-1.234-.917H37.17s1.296-2.277 1.517-2.688c.538 0 1.012-.047 1.17.332l.016-2.324 2.578-4.443v8.3l5.344-8.996h3.162L43.62 65.286h-3.7Zm11.495 0h-2.578v-1.992c0-.886-.284-1.06-1.296-1.06h-1.407s1.264-2.277 1.517-2.688c.744-.016.902 0 1.107.348v-2.087l2.64-4.68v12.159h.017Z"/><path fill="#fff" d="m49.263 13.36-.016.033c-.032.063-10.61 18.42-11.053 19.195l-.047.079h-27.75c-.078 0-.205.015-.284.19-.047.094-1.265 2.245-2.735 4.822l-1.091 1.929c-.016.016-.016.032-.016.047h27.765s-4.522 7.811-4.76 8.238h8.397c1.249-2.198 19.606-34.39 19.67-34.516h-7.986c-.079-.032-.094-.016-.094-.016ZM70.402 13.345h-4.395c-.159 0-.174.016-.206.079-1.107 1.866-10.736 18.167-11.985 20.428l-.142.27-.127-.285c-.522-1.25-2.91-1.202-4.49-1.186h-.649c-.68 1.138-3.225 5.897-3.81 6.988.553 0 1.929-.015 3.194 0 .822.016 1.201.411 1.391.76.142.252.206.569.206.885 0 .427-.127.87-.364 1.265-.538.901-2.53 4.395-3.052 5.312h7.922c.996-1.723 19.59-34.105 19.748-34.374.032-.063.064-.11.08-.158h-.111l-3.21.016ZM68.646 55.119h-9.234s-.285-.11-.57.332l-1.058 1.897h3.794c1.36 0 1.629.79.649 2.53-.601 1.06-2.23 4-2.23 4s-.522 1.408-2.292 1.408H52.36v-2.657h3.7c.459 0 1.36.032 1.708-.616.363-.649 1.122-1.993 1.122-1.993h-3.652c-1.297 0-1.565-1.138-1.123-1.929.443-.79 2.04-3.589 2.498-4.38.46-.79.76-1.343 2.293-1.343h9.756v2.75h-.016ZM13.796 59.562h10.436l4.111-7.131h3.115L24.12 65.285h-3.225l1.755-3.035h-8.855v-2.688ZM27.173 65.285s.87-1.533 1.17-2.04c.3-.505.442-1.011-.412-.995h-1.264s1.122-2.087 1.47-2.688c.696 0 1.771-.048 1.976.474a6188.4 6188.4 0 0 1 4.46-7.605h3.051L30.24 65.285h-3.067ZM31.505 65.285l7.494-12.854h3.005l-7.337 12.854h-3.162ZM39.917 65.285v-2.118c0-.585-.19-.917-1.233-.917h-1.518s1.296-2.277 1.518-2.688c.537 0 1.012-.048 1.17.332l.016-2.325 2.577-4.443v8.301l5.344-8.996h3.162l-7.336 12.854h-3.7ZM51.412 65.285h-2.578v-1.992c0-.885-.284-1.06-1.296-1.06h-1.407s1.265-2.276 1.518-2.687c.743-.016.9 0 1.106.348v-2.087l2.641-4.68v12.158h.016Z"/></svg>