<svg xmlns="http://www.w3.org/2000/svg" x="0px" y="0px" width="100" height="100" viewBox="0 0 50 50">
  <path d="M 14 5 C 9.04 5 5 9.04 5 14 L 5 36 C 5 40.96 9.04 45 14 45 L 36 45 C 40.96 45 45 40.96 45 36 L 45 14 C 45 9.04 40.96 5 36 5 L 14 5 z M 19.330078 13 C 21.630078 13 23.669766 16.089688 25.009766 20.929688 C 26.349766 16.089688 28.399219 13 30.699219 13 C 34.729219 13 38 23.3 38 36 L 34.75 36 C 34.75 24.2 32.939453 14.640625 30.689453 14.640625 C 28.449453 14.640625 26.640625 23.469375 26.640625 34.359375 L 23.390625 34.359375 C 23.390625 23.469375 21.570078 14.640625 19.330078 14.640625 C 17.090078 14.640625 15.269531 24.2 15.269531 36 L 12.029297 36 C 12.029297 23.3 15.300078 13 19.330078 13 z" fill="#ffffff"></path>
</svg>
