<svg xmlns="http://www.w3.org/2000/svg" width="160" height="81" fill="none">
  <g fill="#FFFFFF" clip-path="url(#clip0_426_2940)">
    <path d="M35.81 37c2.878 0 3.984 1.79 3.984 4.125 0 3.187-1.779 7.742-6.001 7.742-2.562 0-4.059-1.651-4.059-3.91 0-3.299 1.7-7.957 6.075-7.957ZM22.512 52.205h5.167l.67-2.909h.077c.989 2.584 3.591 3.408 6.392 3.408 6.94 0 10.575-5.919 10.575-11.657 0-4.302-2.174-7.883-7.344-7.883-2.676 0-4.293.751-6.032 2.465h-.08l2.094-9.027h-5.605l-5.914 25.603ZM98.196 39.493c.514-4.956-3.525-6.508-8.165-6.508-4.1 0-10.28 2.471-10.28 6.902 0 3.49 2.098 3.943 4.533 4.64l4.32 1.04c1.24.368 1.922.545 1.922 1.897 0 1.382-2.068 1.494-3.838 1.494-2.006 0-3.43-.18-3.28-1.942l.06-.63H77.67l-.077.98c-.389 4.513 4.01 5.95 8.152 5.95 4.888 0 10.254-1.787 10.672-6.566.284-3.243-2.059-4.587-5.1-5.52l-2.84-.856c-1.915-.564-2.566-1.084-2.487-1.946.11-1.377 1.545-1.442 3.596-1.442 2.216 0 3.001.87 2.896 2.508h5.714ZM109.537 28.291h-5.607l-1.258 5.37h-2.816l-.87 3.815h2.898l-2.286 10.002c-.16.65-.276 1.291-.276 1.759-.078 3.009 2.719 3.765 5.322 3.765 1.182 0 1.819-.073 2.965-.18l.938-3.945c-.67.07-.782.106-1.456.106-.831 0-1.893-.035-1.893-1.36 0-.145.079-.466.154-.863l2.096-9.284h3.839l.866-3.814h-3.874l1.258-5.371Z"/>
    <path d="M129.808 44.277c.276-.897.484-1.9.569-2.901.473-5.378-3.115-8.103-8.796-8.103-6.938 0-11.723 5.517-12.235 11.435-.462 5.274 2.916 8.104 8.358 8.104 5.876 0 8.987-2.224 11.129-6.385h-5.6c-.939 1.184-2.159 2.547-4.405 2.547-3.038 0-4.365-1.47-4.182-3.622.025-.285.059-.608.138-1.075h15.024Zm-14.153-3.228c1.015-2.079 2.751-3.94 5.902-3.94 3.277 0 3.609 2.046 3.448 3.94h-9.35ZM129.329 52.418h5.598l5.995-25.597h-5.599l-5.994 25.597ZM70.226 45.101l.548-1.791c-1.417.753-3.112.789-4.734.894-2.127.216-4.14.683-4.14 3.012 0 1.4 1.46 2.08 3.074 2.08 3.473 0 4.617-2.183 5.252-4.195ZM44.71 52.205l4.251-18.543h5.332L53.468 37c1.337-2.477 6.059-4.83 12.101-4.83 5.242 0 11.993.713 11.993 5.87 0 .79-.196 1.97-.43 3.118l-1.817 7.458c-.196.643-.285 1.791-.285 2.512 0 .318.09.752.21 1.077h-6.084v-1.834c-1.533 1.579-4.19 2.79-6.483 2.79-3.732 0-6.124-1.047-6.124-5.267 0-2.512 2.674-6.173 7.528-6.71 5.28-.578 7.8.007 7.8-2.355 0-1.83-2.124-2.26-3.551-2.26-2.007 0-5.458-.228-9.322.829-2.978.823-6.054 3.437-6.802 6.592l-1.896 8.215H44.71Z"/>
  </g>
  <defs>
    <clipPath id="clip0_426_2940">
      <path fill="#fff" d="M22.513 26.602H140.82v26.667H22.513z"/>
    </clipPath>
  </defs>
</svg>
