<svg xmlns="http://www.w3.org/2000/svg" width="160" height="81">
    <path fill="white" d="M35.91 38.119a2.349 2.349 0 0 1-.803 1.647l-6.323 5.532a2.385 2.385 0 0 1-1.66.586l-.24-.022a2.354 2.354 0 0 1-1.25-.593l-3.66-3.331c-.9-.815-1.115-2.11-.516-3.08a2.393 2.393 0 0 1 1.696-1.104 2.381 2.381 0 0 1 1.933.596l1.223 1.108a1.428 1.428 0 0 0 1.907.018l3.697-3.233c.73-.637 1.729-.814 2.546-.456a2.379 2.379 0 0 1 1.45 2.332Z"/>
    <path fill="white" d="M22.681 57.156c-8.753-2.369-13.94-11.394-11.563-20.12 2.377-8.724 11.431-13.895 20.184-11.526a2.426 2.426 0 0 1 1.48 1.141 2.444 2.444 0 0 1-.909 3.336 2.424 2.424 0 0 1-1.852.227c-6.15-1.665-12.514 1.969-14.184 8.1-1.67 6.131 1.975 12.474 8.125 14.138 6.151 1.665 12.514-1.968 14.185-8.1a2.45 2.45 0 0 1 1.143-1.476 2.437 2.437 0 0 1 3.328.9 2.46 2.46 0 0 1.248 1.854c-2.377 8.725-11.432 13.895-20.185 11.526ZM52.714 36.339h-4.228v-2.47h11.446v2.47h-4.228v12.432h-2.99V36.339ZM62.26 33.124c.982 0 1.687.724 1.687 1.682s-.705 1.682-1.687 1.682c-.982 0-1.687-.724-1.687-1.682s.705-1.682 1.687-1.682Zm-1.452 4.577h2.904v11.07h-2.904V37.7ZM65.57 37.702h2.776v1.32c.555-1.022 1.623-1.576 3.203-1.576 1.431 0 2.542.575 3.204 1.576.811-1.044 2.05-1.576 3.673-1.576 2.328 0 3.972 1.576 3.972 4.236v7.09h-2.904V42.15c0-1.277-.577-2.193-1.987-2.193-1.28 0-2.071.767-2.071 2.257v6.556h-2.904v-6.62c0-1.277-.577-2.193-1.986-2.193-1.303 0-2.072.767-2.072 2.257v6.556H65.57v-11.07ZM83.593 44.088v-1.511c0-3.002 1.794-5.13 5.126-5.13 3.288 0 4.954 2.192 4.954 4.853v1.937h-7.26v.277c0 1.298.661 2.426 2.348 2.426 1.24 0 2.008-.638 2.285-1.404h2.542c-.385 2.022-2.37 3.49-4.827 3.49-3.139 0-5.168-1.83-5.168-4.938Zm2.82-1.895h4.59v-.276c0-1.384-.725-2.427-2.284-2.427-1.666 0-2.307 1.107-2.307 2.597v.106ZM94.741 42.386v-2.13c0-3.81 2.029-6.684 6.535-6.684 3.78 0 6.108 2.555 6.257 5.6h-2.776c-.192-1.683-1.26-3.151-3.481-3.151-2.499 0-3.566 1.703-3.566 4.087v2.427c0 2.384 1.067 4.087 3.566 4.087 2.221 0 3.289-1.47 3.481-3.15h2.776c-.149 3.043-2.477 5.598-6.257 5.598-4.506 0-6.535-2.874-6.535-6.684ZM108.473 45.578c0-2.405 1.815-3.512 4.485-3.512 1.324 0 2.306.51 2.819.936v-1.511c0-1.022-.727-1.788-1.922-1.788-1.004 0-1.623.447-1.922 1.043h-2.691c.64-2.15 2.37-3.3 4.762-3.3 2.776 0 4.677 1.682 4.677 4.258v7.067h-2.798V47.75c-.512.745-1.922 1.278-3.203 1.278-2.499 0-4.207-1.299-4.207-3.449Zm7.304-.106c0-.98-.961-1.554-2.264-1.554-1.367 0-2.221.553-2.221 1.575 0 1.022.918 1.618 2.135 1.618 1.282 0 2.35-.703 2.35-1.64ZM120.367 37.702h2.777v1.32c.555-1.022 1.623-1.576 3.203-1.576 1.431 0 2.541.575 3.203 1.576.812-1.044 2.05-1.576 3.673-1.576 2.328 0 3.973 1.576 3.973 4.236v7.09h-2.905V42.15c0-1.277-.576-2.193-1.986-2.193-1.281 0-2.071.767-2.071 2.257v6.556h-2.905v-6.62c0-1.277-.576-2.193-1.986-2.193-1.302 0-2.071.767-2.071 2.257v6.556h-2.905v-11.07ZM149.624 42.321v1.83c0 2.662-1.665 4.876-4.655 4.876-1.474 0-2.606-.596-3.182-1.448v4.896h-2.905V37.702h2.777v1.32c.555-.852 1.687-1.576 3.288-1.576 3.054 0 4.677 2.257 4.677 4.875Zm-7.837.128v1.618c0 1.681 1.11 2.618 2.434 2.618 1.645 0 2.499-1.107 2.499-2.66v-1.576c0-1.469-.79-2.661-2.477-2.661-1.474 0-2.456 1.107-2.456 2.660Z"/>
</svg>