<svg width="192" height="96" viewBox="0 0 192 96" fill="none" xmlns="http://www.w3.org/2000/svg"><path d="m54.7 28.5-5.7 17h-.1c-2-5.6-3.8-11.3-5.6-16.9H13.7l4 14.7h17.2l7.2 23.3h14a3595 3595 0 0 1 7-23.3h110.5l4.5-14.7H54.7Zm35.5 13L86 31.2H89c.9 2.1 1.6 4.3 2.4 6.4.9-2.1 1.6-4.3 2.4-6.4h3.2l-4.3 10.3h-2.6Zm13.9-.1-.8-1.8h-4l-.8 1.8h-3l4.4-10.3h2.8l4.4 10.4-3-.1Zm12 0h-8V31.2h3V39h5v2.4Zm9 0h-7.9V31.2h2.9V39h5v2.4Zm10 0h-8.8V31.2h7l1.5 2.4h-5.6V35h4.6v2.3h-4.6V39h5.9v2.4Zm10.5-10.1-1.6 2.4-1.3 2-1 1.7V41.3h-3v-3.9l-1.2-1.7L136 33l-1-1.7v-.1h3.2l2.1 3.7 1.1-1.9 1.1-1.8h3.2Z"  fill="#fff"/><path d="m101.3 34.5-1.2 2.9h2.4l-1.2-3ZM107.4 54.9h-1.8l-3.2-4.1v4h-2v-7.4h1.8l3.1 4v-4h2.1V55ZM68.4 54.9v-7.5h3.2c.7 0 1.4.2 2.1.6 1 .5 1.6 1.3 1.7 2.3.3 1.2.1 2.2-.6 3.1-.5.7-1.3 1-2.1 1.3L71 55h-2.7Zm2-1.8H72c.9-.3 1.5-.8 1.6-1.7 0-.9-.3-1.7-1.1-2-.7-.3-1.3-.2-2-.2v3.9ZM148.2 55a4 4 0 0 1-3.4-1.8 3.7 3.7 0 0 1 1.7-5.5c1.7-.7 3.2-.5 4.6.7.8.7 1.2 1.8 1.2 3 0 1.7-1.3 3.2-3.3 3.5l-.8.1Zm2-3.9v-.3c-.2-.7-.5-1.3-1.3-1.6a2 2 0 0 0-2 .3c-.7.6-1 1.7-.5 2.6a2 2 0 0 0 3 .6c.5-.4.8-1 .8-1.6ZM157 55c-1.5 0-2.8-.7-3.6-2.2-.9-1.8-.2-4.1 1.9-5 1.4-.7 2.8-.6 4 0 1.2.8 1.8 1.9 1.9 3.2.1 2-1.3 3.6-3.2 4h-1Zm-1.8-3.9v.3a2 2 0 0 0 1.1 1.6c.8.4 1.5.2 2.1-.3.7-.5.9-1.5.6-2.3a2 2 0 0 0-2.3-1.3 2 2 0 0 0-1.5 2ZM81.3 54.9l-2-3.9h1.5c.4-.1.7-.5.6-1 0-.4-.2-.7-.7-.8H78.8v5.7h-2v-7.5h3.8a4 4 0 0 1 1.6.4c.7.3 1.2.8 1.3 1.6l-.1 1.5c-.2.6-.7 1-1.2 1.3 0 0-.2 0-.3.2l1.8 2.6-2.4-.1ZM115.8 48.3l-1.2 1.4-.4-.3c-.5-.3-1.1-.4-1.8-.4-.5 0-1 .4-1.3.9-.6.9-.4 2.1.4 2.8.7.7 2 .7 2.6.2v-1h-1.8l.8-1.4h3v3.3c-.2.3-.6.5-1 .6-1.2.7-2.6.8-4 .3a3.8 3.8 0 0 1-2.4-3.5c0-2.2 1.6-4 3.9-4 1 0 2.1.2 3 .9l.2.2ZM138.1 50.2h2.8v-2.8h2v7.4h-2V52h-2.8v2.8h-2v-7.3h2v2.7ZM127 48.3l-1 1.4-1.5-.6h-.8a1 1 0 0 0-.5.1c-.2.2-.3.5 0 .7l.6.3 1.7.4c.3 0 .5.3.8.4.8.4 1.1 1.3.8 2.2-.2 1-.9 1.5-1.8 1.7-1 .2-2 .2-3-.1a5 5 0 0 1-1.4-.8l-.2-.2 1-1.3.3.1a4 4 0 0 0 1.9.8l.8-.1c.2 0 .4-.2.4-.4s-.1-.4-.3-.5l-.7-.2-1.9-.6c-.4-.2-.8-.5-1-1-.4-.8-.3-2 .8-2.7l1.3-.5c1.2 0 2.4 0 3.5.8h.2ZM91.8 52.1l1.7-4.7h2.3l-3 7.5h-2l-3.1-7.5H90l1.7 4.7h.1ZM133.6 52.3l1.5 1c-.5 1.1-2.4 2-4 1.6-1.7-.3-3.1-1.6-3.2-3.8 0-1.6 1-3.2 2.9-3.7 1.6-.5 3.3 0 4.3 1.3l-1.5 1.2-.4-.4c-.6-.5-1.3-.6-2-.4-.7.3-1 1-1.1 1.6 0 .5 0 1 .3 1.5.7 1 2 1.1 3 .2l.2-.1ZM162.4 47.4h2v5.7h3.7v1.7h-5.7v-7.4ZM84.8 47.4h2v7.4h-2v-7.4ZM98.7 54.9h-2v-7.5h2V55ZM170 53.6h-.4 1-.4v1.2h-.2v-1.2ZM171.8 54.2v-.5l-.2.5-.2.6h-.1l-.3-.6-.1-.5v.6l-.1.5h-.2l.1-1.3h.3l.2.7.1.4.1-.4.3-.7h.2v1.3h-.1v-.6ZM168 58.6H68.4v.6h99.8v-.6Z"  fill="#fff"/></svg>