<svg xmlns="http://www.w3.org/2000/svg" width="500" viewBox="0 0 375 375" height="500" version="1.0"><defs><clipPath id="a"><path d="M99.82 112.371h150v110.25h-150Zm0 0"/></clipPath></defs><g clip-path="url(#a)"><path fill="#8ee124" d="M238.047 156.867h-15.613l-42.977-32.234c1.453-1.285 2.387-3.145 2.387-5.235 0-3.875-3.153-7.027-7.024-7.027a7.035 7.035 0 0 0-7.027 7.027c0 2.09.934 3.95 2.387 5.235l-42.977 32.234H111.59c-6.453 0-11.707 5.25-11.707 11.707v42.153c0 6.457 5.254 11.707 11.707 11.707h126.457c6.457 0 11.707-5.25 11.707-11.707v-42.153c0-6.457-5.25-11.707-11.707-11.707m-63.227-39.812c1.29 0 2.34 1.054 2.34 2.343 0 1.29-1.05 2.34-2.34 2.34a2.345 2.345 0 0 1-2.343-2.34 2.347 2.347 0 0 1 2.343-2.343m0 9.953 39.809 29.86h-79.621Zm70.25 83.719a7.03 7.03 0 0 1-7.023 7.023H111.59a7.03 7.03 0 0 1-7.024-7.023v-42.153c0-3.87 3.153-7.023 7.024-7.023h126.457c3.871 0 7.023 3.152 7.023 7.023Zm0 0"/></g><path fill="#8ee124" d="M179.504 175.602v28.097a2.34 2.34 0 0 0 2.34 2.344h14.05v-4.684h-11.707v-9.367h11.708v-4.683h-11.708v-9.368h11.708v-4.683h-14.051a2.34 2.34 0 0 0-2.34 2.344m35.125 18.179-9.613-19.226a2.34 2.34 0 0 0-4.437 1.047v30.441h4.683V185.52l9.613 19.23a2.35 2.35 0 0 0 2.633 1.23 2.34 2.34 0 0 0 1.804-2.28v-30.442h-4.683Zm-72.594-20.523c-5.168 0-9.367 4.203-9.367 9.367v14.05c0 5.165 4.2 9.368 9.367 9.368 5.164 0 9.367-4.203 9.367-9.367v-14.051c0-5.164-4.203-9.367-9.367-9.367m4.684 23.418a4.69 4.69 0 0 1-4.684 4.683 4.69 4.69 0 0 1-4.683-4.683v-14.051a4.69 4.69 0 0 1 4.683-4.684 4.69 4.69 0 0 1 4.684 4.684Zm18.734-23.418h-7.027a2.34 2.34 0 0 0-2.34 2.344v30.441h4.684v-14.05h4.683c5.164 0 9.367-4.2 9.367-9.368 0-5.164-4.203-9.367-9.367-9.367m0 14.05h-4.683v-9.367h4.683a4.69 4.69 0 0 1 4.684 4.684 4.69 4.69 0 0 1-4.684 4.684m0 0"/></svg> 