<svg xmlns="http://www.w3.org/2000/svg" xmlns:xlink="http://www.w3.org/1999/xlink" width="500" zoomAndPan="magnify" viewBox="0 0 375 374.999991" height="500" preserveAspectRatio="xMidYMid meet" version="1.0"><defs><clipPath id="b1cab42381"><path d="M 114 178 L 261 178 L 261 262.5 L 114 262.5 Z M 114 178 " clip-rule="nonzero"/></clipPath><clipPath id="4351e0a235"><path d="M 170 112.5 L 205 112.5 L 205 146 L 170 146 Z M 170 112.5 " clip-rule="nonzero"/></clipPath></defs><path fill="#ffed00" d="M 184.378906 229.105469 L 175.859375 229.105469 C 174.890625 229.105469 174.101562 228.3125 174.101562 227.347656 C 174.101562 226.378906 174.890625 225.589844 175.859375 225.589844 L 178.40625 225.589844 L 178.40625 215.132812 L 175.859375 215.132812 C 174.890625 215.132812 174.101562 214.34375 174.101562 213.375 C 174.101562 212.410156 174.890625 211.621094 175.859375 211.621094 L 184.378906 211.621094 C 185.347656 211.621094 186.136719 212.410156 186.136719 213.375 C 186.136719 214.34375 185.347656 215.132812 184.378906 215.132812 L 181.921875 215.132812 L 181.921875 225.589844 L 184.378906 225.589844 C 185.347656 225.589844 186.136719 226.378906 186.136719 227.347656 C 186.136719 228.3125 185.347656 229.105469 184.378906 229.105469 Z M 184.378906 229.105469 " fill-opacity="1" fill-rule="evenodd"/><path fill="#ffed00" d="M 199.140625 229.105469 C 198.4375 229.105469 197.824219 228.753906 197.5625 228.136719 L 193.871094 220.84375 L 193.871094 227.347656 C 193.871094 228.3125 193.078125 229.105469 192.113281 229.105469 C 191.144531 229.105469 190.355469 228.3125 190.355469 227.347656 L 190.355469 213.375 C 190.355469 212.585938 190.882812 211.882812 191.671875 211.707031 C 192.464844 211.445312 193.34375 211.882812 193.695312 212.585938 L 197.386719 219.964844 L 197.386719 213.375 C 197.386719 212.410156 198.085938 211.621094 199.140625 211.621094 C 200.109375 211.621094 200.898438 212.410156 200.898438 213.375 L 200.898438 227.347656 C 200.898438 228.226562 200.285156 228.929688 199.492188 229.105469 C 199.40625 229.105469 199.230469 229.105469 199.140625 229.105469 Z M 199.140625 229.105469 " fill-opacity="1" fill-rule="evenodd"/><path fill="#ffed00" d="M 166.28125 206.609375 C 165.839844 206.609375 165.402344 206.433594 165.050781 206.171875 L 160.304688 201.515625 L 155.648438 206.171875 C 155.121094 206.609375 154.332031 206.785156 153.714844 206.523438 C 153.101562 206.257812 152.660156 205.554688 152.660156 204.855469 L 152.660156 190.796875 C 152.660156 189.828125 153.453125 189.039062 154.417969 189.039062 C 155.386719 189.039062 156.175781 189.828125 156.175781 190.796875 L 156.175781 200.722656 L 159.074219 197.824219 C 159.777344 197.121094 160.832031 197.121094 161.535156 197.824219 L 164.523438 200.722656 L 164.523438 190.796875 C 164.523438 189.828125 165.3125 189.039062 166.28125 189.039062 C 167.246094 189.039062 168.039062 189.828125 168.039062 190.796875 L 168.039062 204.855469 C 168.039062 205.554688 167.597656 206.257812 166.984375 206.523438 C 166.71875 206.609375 166.457031 206.609375 166.28125 206.609375 Z M 166.28125 206.609375 " fill-opacity="1" fill-rule="evenodd"/><path fill="#ffed00" d="M 180.425781 206.609375 C 175.59375 206.609375 171.640625 202.65625 171.640625 197.824219 C 171.640625 192.992188 175.59375 189.039062 180.425781 189.039062 C 185.257812 189.039062 189.214844 192.992188 189.214844 197.824219 C 189.214844 202.65625 185.257812 206.609375 180.425781 206.609375 Z M 180.425781 192.550781 C 177.527344 192.550781 175.15625 194.925781 175.15625 197.824219 C 175.15625 200.722656 177.527344 203.097656 180.425781 203.097656 C 183.328125 203.097656 185.699219 200.722656 185.699219 197.824219 C 185.699219 194.925781 183.328125 192.550781 180.425781 192.550781 Z M 180.425781 192.550781 " fill-opacity="1" fill-rule="evenodd"/><path fill="#ffed00" d="M 220.582031 206.609375 C 220.140625 206.609375 219.703125 206.433594 219.351562 206.082031 L 215.132812 202.042969 L 215.132812 204.855469 C 215.132812 205.820312 214.34375 206.609375 213.375 206.609375 C 212.410156 206.609375 211.621094 205.820312 211.621094 204.855469 L 211.621094 190.796875 C 211.621094 189.828125 212.410156 189.039062 213.375 189.039062 C 214.34375 189.039062 215.132812 189.828125 215.132812 190.796875 L 215.132812 193.695312 L 219.351562 189.566406 C 220.054688 188.863281 221.195312 188.949219 221.8125 189.566406 C 222.515625 190.269531 222.515625 191.410156 221.8125 192.113281 L 215.925781 197.824219 L 221.8125 203.625 C 222.515625 204.238281 222.515625 205.378906 221.8125 206.082031 C 221.460938 206.433594 221.019531 206.609375 220.582031 206.609375 Z M 220.582031 206.609375 " fill-opacity="1" fill-rule="evenodd"/><path fill="#ffed00" d="M 203.449219 206.609375 C 203.359375 206.609375 203.273438 206.609375 203.273438 206.609375 C 202.304688 206.433594 201.601562 205.554688 201.691406 204.589844 C 201.953125 202.042969 201.515625 200.8125 200.988281 200.285156 C 200.546875 199.667969 200.019531 199.582031 199.933594 199.582031 L 198.261719 199.582031 L 198.261719 204.855469 C 198.261719 205.820312 197.472656 206.609375 196.507812 206.609375 C 195.539062 206.609375 194.75 205.820312 194.75 204.855469 L 194.75 190.796875 C 194.75 189.828125 195.539062 189.039062 196.507812 189.039062 L 200.019531 189.039062 C 202.921875 189.039062 205.292969 191.410156 205.292969 194.308594 C 205.292969 195.804688 204.679688 197.035156 203.710938 198 C 205.027344 199.667969 205.554688 201.953125 205.203125 205.027344 C 205.117188 205.90625 204.328125 206.609375 203.449219 206.609375 Z M 198.261719 196.066406 L 200.019531 196.066406 C 200.988281 196.066406 201.777344 195.277344 201.777344 194.308594 C 201.777344 193.34375 200.988281 192.550781 200.019531 192.550781 L 198.261719 192.550781 Z M 198.261719 196.066406 " fill-opacity="1" fill-rule="evenodd"/><path fill="#ffed00" d="M 201.953125 252.039062 C 201.867188 252.039062 201.867188 252.039062 201.777344 252.039062 C 200.8125 251.863281 200.109375 250.984375 200.195312 250.015625 C 200.546875 247.46875 200.019531 246.238281 199.582031 245.625 C 199.140625 245.097656 198.613281 245.007812 198.4375 245.007812 L 196.769531 245.007812 L 196.769531 250.28125 C 196.769531 251.246094 195.980469 252.039062 195.011719 252.039062 C 194.046875 252.039062 193.253906 251.246094 193.253906 250.28125 L 193.253906 236.222656 C 193.253906 235.253906 194.046875 234.464844 195.011719 234.464844 L 198.527344 234.464844 C 201.425781 234.464844 203.800781 236.835938 203.800781 239.738281 C 203.800781 241.140625 203.183594 242.460938 202.304688 243.425781 C 203.625 245.007812 204.0625 247.378906 203.710938 250.457031 C 203.625 251.335938 202.832031 252.039062 201.953125 252.039062 Z M 196.769531 241.492188 L 198.527344 241.492188 C 199.492188 241.492188 200.285156 240.703125 200.285156 239.738281 C 200.285156 238.769531 199.492188 237.980469 198.527344 237.980469 L 196.769531 237.980469 Z M 196.769531 241.492188 " fill-opacity="1" fill-rule="evenodd"/><path fill="#ffed00" d="M 216.714844 252.039062 L 210.214844 252.039062 C 209.246094 252.039062 208.457031 251.246094 208.457031 250.28125 L 208.457031 236.222656 C 208.457031 235.253906 209.246094 234.464844 210.214844 234.464844 L 216.714844 234.464844 C 217.683594 234.464844 218.472656 235.253906 218.472656 236.222656 C 218.472656 237.1875 217.683594 237.980469 216.714844 237.980469 L 211.972656 237.980469 L 211.972656 241.492188 L 216.714844 241.492188 C 217.683594 241.492188 218.472656 242.285156 218.472656 243.25 C 218.472656 244.21875 217.683594 245.007812 216.714844 245.007812 L 211.972656 245.007812 L 211.972656 248.523438 L 216.714844 248.523438 C 217.683594 248.523438 218.472656 249.3125 218.472656 250.28125 C 218.472656 251.246094 217.683594 252.039062 216.714844 252.039062 Z M 216.714844 252.039062 " fill-opacity="1" fill-rule="evenodd"/><path fill="#ffed00" d="M 227.433594 252.039062 C 224.535156 252.039062 222.164062 249.664062 222.164062 246.765625 C 222.164062 245.800781 222.953125 245.007812 223.921875 245.007812 C 224.886719 245.007812 225.679688 245.800781 225.679688 246.765625 C 225.679688 247.730469 226.46875 248.523438 227.433594 248.523438 C 228.402344 248.523438 229.191406 247.730469 229.191406 246.765625 C 229.191406 245.800781 228.402344 245.007812 227.433594 245.007812 C 224.535156 245.007812 222.164062 242.636719 222.164062 239.738281 C 222.164062 236.835938 224.535156 234.464844 227.433594 234.464844 C 230.335938 234.464844 232.707031 236.835938 232.707031 239.738281 C 232.707031 240.703125 231.917969 241.492188 230.949219 241.492188 C 229.984375 241.492188 229.191406 240.703125 229.191406 239.738281 C 229.191406 238.769531 228.402344 237.980469 227.433594 237.980469 C 226.46875 237.980469 225.679688 238.769531 225.679688 239.738281 C 225.679688 240.703125 226.46875 241.492188 227.433594 241.492188 C 230.335938 241.492188 232.707031 243.867188 232.707031 246.765625 C 232.707031 249.664062 230.335938 252.039062 227.433594 252.039062 Z M 227.433594 252.039062 " fill-opacity="1" fill-rule="evenodd"/><path fill="#ffed00" d="M 241.140625 252.039062 C 238.242188 252.039062 235.871094 249.664062 235.871094 246.765625 C 235.871094 245.800781 236.660156 245.007812 237.628906 245.007812 C 238.59375 245.007812 239.386719 245.800781 239.386719 246.765625 C 239.386719 247.730469 240.175781 248.523438 241.140625 248.523438 C 242.109375 248.523438 242.898438 247.730469 242.898438 246.765625 C 242.898438 245.800781 242.109375 245.007812 241.140625 245.007812 C 238.242188 245.007812 235.871094 242.636719 235.871094 239.738281 C 235.871094 236.835938 238.242188 234.464844 241.140625 234.464844 C 244.042969 234.464844 246.414062 236.835938 246.414062 239.738281 C 246.414062 240.703125 245.625 241.492188 244.65625 241.492188 C 243.691406 241.492188 242.898438 240.703125 242.898438 239.738281 C 242.898438 238.769531 242.109375 237.980469 241.140625 237.980469 C 240.175781 237.980469 239.386719 238.769531 239.386719 239.738281 C 239.386719 240.703125 240.175781 241.492188 241.140625 241.492188 C 244.042969 241.492188 246.414062 243.867188 246.414062 246.765625 C 246.414062 249.664062 244.042969 252.039062 241.140625 252.039062 Z M 241.140625 252.039062 " fill-opacity="1" fill-rule="evenodd"/><path fill="#ffed00" d="M 130.34375 252.039062 C 129.375 252.039062 128.585938 251.246094 128.585938 250.28125 L 128.585938 236.222656 C 128.585938 235.253906 129.375 234.464844 130.34375 234.464844 L 133.859375 234.464844 C 136.757812 234.464844 139.128906 236.835938 139.128906 239.738281 C 139.128906 242.636719 136.757812 245.007812 133.859375 245.007812 L 132.101562 245.007812 L 132.101562 250.28125 C 132.101562 251.246094 131.308594 252.039062 130.34375 252.039062 Z M 132.101562 241.492188 L 133.859375 241.492188 C 134.824219 241.492188 135.613281 240.703125 135.613281 239.738281 C 135.613281 238.769531 134.824219 237.980469 133.859375 237.980469 L 132.101562 237.980469 Z M 132.101562 241.492188 " fill-opacity="1" fill-rule="evenodd"/><path fill="#ffed00" d="M 150.902344 252.039062 C 150.816406 252.039062 150.726562 252.039062 150.640625 252.039062 C 149.671875 251.863281 148.972656 250.984375 149.144531 250.015625 C 149.320312 247.996094 149.144531 246.414062 148.445312 245.625 C 148.003906 245.097656 147.476562 245.007812 147.390625 245.007812 L 145.71875 245.007812 L 145.71875 250.28125 C 145.71875 251.246094 144.929688 252.039062 143.960938 252.039062 C 142.996094 252.039062 142.203125 251.246094 142.203125 250.28125 L 142.203125 236.222656 C 142.203125 235.253906 142.996094 234.464844 143.960938 234.464844 L 147.390625 234.464844 C 150.289062 234.464844 152.660156 236.835938 152.660156 239.738281 C 152.660156 241.140625 152.132812 242.460938 151.167969 243.425781 C 152.484375 245.007812 153.011719 247.378906 152.574219 250.457031 C 152.484375 251.335938 151.78125 252.039062 150.902344 252.039062 Z M 145.71875 241.492188 L 147.390625 241.492188 C 147.390625 241.492188 147.390625 241.492188 147.476562 241.492188 C 148.355469 241.492188 149.144531 240.703125 149.144531 239.738281 C 149.144531 238.769531 148.355469 237.980469 147.390625 237.980469 L 145.71875 237.980469 Z M 145.71875 241.492188 " fill-opacity="1" fill-rule="evenodd"/><path fill="#ffed00" d="M 164.699219 252.039062 C 159.867188 252.039062 156 248.082031 156 243.25 C 156 238.417969 159.867188 234.464844 164.699219 234.464844 C 169.53125 234.464844 173.484375 238.417969 173.484375 243.25 C 173.484375 248.082031 169.53125 252.039062 164.699219 252.039062 Z M 164.699219 237.980469 C 161.886719 237.980469 159.515625 240.351562 159.515625 243.25 C 159.515625 246.152344 161.886719 248.523438 164.699219 248.523438 C 167.597656 248.523438 169.972656 246.152344 169.972656 243.25 C 169.972656 240.351562 167.597656 237.980469 164.699219 237.980469 Z M 164.699219 237.980469 " fill-opacity="1" fill-rule="evenodd"/><path fill="#ffed00" d="M 183.765625 252.039062 L 183.589844 252.039062 C 180.425781 252.039062 177.789062 249.402344 177.789062 246.238281 L 177.789062 240.175781 C 177.789062 237.011719 180.425781 234.464844 183.589844 234.464844 L 183.855469 234.464844 C 185.609375 234.464844 187.105469 235.253906 188.160156 236.574219 C 188.773438 237.363281 188.597656 238.417969 187.894531 239.035156 C 187.105469 239.648438 185.960938 239.472656 185.347656 238.769531 C 184.996094 238.242188 184.46875 237.980469 183.855469 237.980469 L 183.589844 237.980469 C 182.359375 237.980469 181.304688 239.035156 181.304688 240.175781 L 181.304688 246.238281 C 181.304688 247.46875 182.359375 248.523438 183.589844 248.523438 L 183.765625 248.523438 C 184.90625 248.523438 185.785156 247.554688 185.785156 246.503906 L 185.785156 244.570312 L 184.554688 244.570312 C 183.589844 244.570312 182.800781 243.777344 182.800781 242.8125 C 182.800781 241.84375 183.589844 241.054688 184.554688 241.054688 L 187.542969 241.054688 C 188.511719 241.054688 189.300781 241.84375 189.300781 242.8125 L 189.300781 246.503906 C 189.300781 249.488281 186.839844 252.039062 183.765625 252.039062 Z M 183.765625 252.039062 " fill-opacity="1" fill-rule="evenodd"/><g clip-path="url(#b1cab42381)"><path fill="#ffed00" d="M 245.449219 262.492188 L 129.550781 262.492188 C 120.941406 262.492188 114 255.464844 114 246.941406 L 114 194.132812 C 114 185.523438 120.941406 178.582031 129.550781 178.582031 L 245.449219 178.582031 C 253.972656 178.582031 261 185.523438 261 194.132812 L 261 246.941406 C 261 255.464844 253.972656 262.492188 245.449219 262.492188 Z M 129.550781 182.097656 C 122.875 182.097656 117.515625 187.457031 117.515625 194.132812 L 117.515625 246.941406 C 117.515625 253.53125 122.875 258.980469 129.550781 258.980469 L 245.449219 258.980469 C 252.039062 258.980469 257.484375 253.53125 257.484375 246.941406 L 257.484375 194.132812 C 257.484375 187.457031 252.039062 182.097656 245.449219 182.097656 Z M 129.550781 182.097656 " fill-opacity="1" fill-rule="evenodd"/></g><path fill="#ffed00" d="M 187.457031 137.988281 C 182.535156 137.988281 178.582031 133.945312 178.582031 129.023438 C 178.582031 124.105469 182.535156 120.152344 187.457031 120.152344 C 192.375 120.152344 196.417969 124.105469 196.417969 129.023438 C 196.417969 133.945312 192.375 137.988281 187.457031 137.988281 Z M 187.457031 123.664062 C 184.46875 123.664062 182.097656 126.125 182.097656 129.023438 C 182.097656 132.011719 184.554688 134.472656 187.457031 134.472656 C 190.445312 134.472656 192.902344 132.011719 192.902344 129.023438 C 192.902344 126.125 190.445312 123.664062 187.457031 123.664062 Z M 187.457031 123.664062 " fill-opacity="1" fill-rule="evenodd"/><path fill="#ffed00" d="M 161.886719 182.097656 C 161.535156 182.097656 161.273438 182.007812 161.007812 181.832031 C 160.128906 181.394531 159.867188 180.339844 160.304688 179.460938 L 181.746094 142.378906 C 182.273438 141.503906 183.328125 141.238281 184.117188 141.679688 C 184.996094 142.203125 185.257812 143.257812 184.820312 144.136719 L 163.378906 181.21875 C 163.027344 181.746094 162.503906 182.097656 161.886719 182.097656 Z M 149.9375 182.097656 C 149.671875 182.097656 149.320312 182.007812 149.058594 181.832031 C 148.179688 181.394531 147.917969 180.25 148.445312 179.460938 L 173.835938 136.582031 C 174.363281 135.789062 175.417969 135.527344 176.210938 135.964844 C 177.085938 136.492188 177.351562 137.546875 176.824219 138.425781 L 151.429688 181.21875 C 151.167969 181.746094 150.550781 182.097656 149.9375 182.097656 Z M 149.9375 182.097656 " fill-opacity="1" fill-rule="evenodd"/><path fill="#ffed00" d="M 213.113281 182.097656 C 212.496094 182.097656 211.882812 181.746094 211.621094 181.21875 L 190.179688 144.136719 C 189.652344 143.257812 190.003906 142.203125 190.796875 141.679688 C 191.671875 141.238281 192.726562 141.503906 193.167969 142.378906 L 214.605469 179.460938 C 215.132812 180.339844 214.78125 181.394531 213.992188 181.832031 C 213.726562 182.007812 213.375 182.097656 213.113281 182.097656 Z M 225.0625 182.097656 C 224.449219 182.097656 223.832031 181.746094 223.480469 181.21875 L 198.085938 138.425781 C 197.648438 137.546875 197.914062 136.492188 198.703125 135.964844 C 199.582031 135.527344 200.636719 135.789062 201.164062 136.582031 L 226.554688 179.460938 C 226.996094 180.25 226.730469 181.394531 225.941406 181.832031 C 225.679688 182.007812 225.328125 182.097656 225.0625 182.097656 Z M 225.0625 182.097656 " fill-opacity="1" fill-rule="evenodd"/><g clip-path="url(#4351e0a235)"><path fill="#ffed00" d="M 187.457031 145.632812 C 178.316406 145.632812 170.9375 138.164062 170.9375 129.023438 C 170.9375 119.976562 178.316406 112.507812 187.457031 112.507812 C 196.59375 112.507812 204.0625 119.976562 204.0625 129.023438 C 204.0625 138.164062 196.59375 145.632812 187.457031 145.632812 Z M 187.457031 116.019531 C 180.339844 116.019531 174.453125 121.90625 174.453125 129.023438 C 174.453125 136.230469 180.339844 142.117188 187.457031 142.117188 C 194.660156 142.117188 200.546875 136.230469 200.546875 129.023438 C 200.546875 121.90625 194.660156 116.019531 187.457031 116.019531 Z M 187.457031 116.019531 " fill-opacity="1" fill-rule="evenodd"/></g></svg>