<svg xmlns="http://www.w3.org/2000/svg" width="500" viewBox="0 0 375 375" height="500" version="1.0"><defs><clipPath id="a"><path d="M114 178h147v84.5H114Zm0 0"/></clipPath><clipPath id="b"><path d="M170 112.5h35V146h-35Zm0 0"/></clipPath></defs><path fill="#ffed00" d="M184.379 229.105h-8.52a1.763 1.763 0 0 1-1.757-1.757c0-.97.789-1.758 1.757-1.758h2.547v-10.457h-2.547a1.76 1.76 0 0 1-1.757-1.758 1.76 1.76 0 0 1 1.757-1.754h8.52c.969 0 1.758.79 1.758 1.754a1.76 1.76 0 0 1-1.758 1.758h-2.457v10.457h2.457a1.76 1.76 0 0 1 1.758 1.758c0 .964-.79 1.757-1.758 1.757m14.761 0c-.702 0-1.316-.351-1.577-.968l-3.692-7.293v6.504c0 .964-.793 1.757-1.758 1.757a1.763 1.763 0 0 1-1.758-1.757v-13.973c0-.79.528-1.492 1.317-1.668.793-.262 1.672.176 2.023.879l3.692 7.379v-6.59c0-.965.699-1.754 1.754-1.754.968 0 1.757.79 1.757 1.754v13.973c0 .879-.613 1.582-1.406 1.757zm-32.859-22.495c-.441 0-.879-.176-1.23-.438l-4.746-4.656-4.657 4.656c-.527.437-1.316.613-1.933.351-.613-.265-1.055-.968-1.055-1.668v-14.058c0-.969.793-1.758 1.758-1.758.969 0 1.758.79 1.758 1.758v9.926l2.898-2.899c.703-.703 1.758-.703 2.461 0l2.988 2.899v-9.926c0-.969.79-1.758 1.758-1.758.965 0 1.758.79 1.758 1.758v14.058c0 .7-.441 1.403-1.055 1.668-.265.086-.527.086-.703.086m14.145.001c-4.832 0-8.785-3.954-8.785-8.786s3.953-8.785 8.785-8.785 8.789 3.953 8.789 8.785-3.957 8.785-8.79 8.785m0-14.06c-2.899 0-5.27 2.376-5.27 5.274s2.371 5.274 5.27 5.274c2.902 0 5.273-2.375 5.273-5.274s-2.37-5.273-5.273-5.273m40.157 14.06a1.73 1.73 0 0 1-1.23-.528l-4.22-4.039v2.812a1.76 1.76 0 0 1-1.757 1.754 1.76 1.76 0 0 1-1.754-1.754v-14.058c0-.969.79-1.758 1.754-1.758.969 0 1.758.79 1.758 1.758v2.898l4.219-4.129c.703-.703 1.843-.617 2.46 0a1.8 1.8 0 0 1 0 2.547l-5.886 5.711 5.887 5.801c.703.613.703 1.754 0 2.457a1.74 1.74 0 0 1-1.231.527m-17.132.001h-.177c-.968-.176-1.671-1.055-1.582-2.02.262-2.547-.175-3.778-.703-4.305-.441-.617-.968-.703-1.054-.703h-1.672v5.273a1.76 1.76 0 0 1-1.754 1.754 1.76 1.76 0 0 1-1.758-1.754v-14.058c0-.969.79-1.758 1.758-1.758h3.512c2.902 0 5.273 2.371 5.273 5.27 0 1.496-.613 2.726-1.582 3.691 1.316 1.668 1.844 3.953 1.492 7.027-.086.88-.875 1.582-1.754 1.582m-5.188-10.544h1.758a1.76 1.76 0 0 0 1.757-1.757c0-.965-.789-1.758-1.757-1.758h-1.758Zm3.692 55.975h-.176c-.964-.177-1.668-1.056-1.582-2.024.352-2.547-.175-3.778-.613-4.391-.441-.527-.969-.617-1.144-.617h-1.668v5.273c0 .965-.79 1.758-1.758 1.758a1.766 1.766 0 0 1-1.758-1.758v-14.058c0-.97.793-1.758 1.758-1.758h3.515c2.899 0 5.274 2.37 5.274 5.273 0 1.403-.617 2.723-1.496 3.688 1.32 1.582 1.757 3.953 1.406 7.031-.086.879-.879 1.582-1.758 1.582m-5.183-10.548h1.757c.965 0 1.758-.789 1.758-1.754 0-.968-.793-1.758-1.758-1.758h-1.757Zm19.945 10.549h-6.5a1.763 1.763 0 0 1-1.758-1.759v-14.058c0-.97.79-1.758 1.758-1.758h6.5a1.76 1.76 0 0 1 1.758 1.758c0 .964-.79 1.757-1.758 1.757h-4.742v3.512h4.742c.969 0 1.758.793 1.758 1.758a1.76 1.76 0 0 1-1.758 1.758h-4.742v3.515h4.742c.969 0 1.758.79 1.758 1.758 0 .965-.79 1.758-1.758 1.758m10.719.001c-2.899 0-5.27-2.376-5.27-5.274 0-.965.79-1.758 1.758-1.758.965 0 1.758.793 1.758 1.758 0 .964.789 1.757 1.754 1.757.968 0 1.757-.793 1.757-1.757 0-.965-.789-1.758-1.757-1.758-2.899 0-5.27-2.371-5.27-5.27 0-2.902 2.371-5.273 5.27-5.273a5.286 5.286 0 0 1 5.273 5.273 1.76 1.76 0 0 1-1.758 1.754 1.76 1.76 0 0 1-1.758-1.754 1.76 1.76 0 0 0-1.757-1.758 1.76 1.76 0 0 0-1.754 1.758c0 .965.789 1.754 1.754 1.754 2.902 0 5.273 2.375 5.273 5.274s-2.371 5.273-5.273 5.273m13.706.001c-2.898 0-5.269-2.376-5.269-5.274 0-.965.79-1.758 1.758-1.758.965 0 1.758.793 1.758 1.758 0 .964.789 1.757 1.754 1.757.968 0 1.757-.793 1.757-1.757 0-.965-.789-1.758-1.757-1.758-2.899 0-5.27-2.371-5.27-5.27 0-2.902 2.371-5.273 5.27-5.273a5.286 5.286 0 0 1 5.273 5.273 1.76 1.76 0 0 1-1.758 1.754 1.76 1.76 0 0 1-1.758-1.754 1.76 1.76 0 0 0-1.757-1.758 1.76 1.76 0 0 0-1.754 1.758c0 .965.789 1.754 1.754 1.754 2.902 0 5.273 2.375 5.273 5.274s-2.371 5.273-5.273 5.273m-110.797.001a1.763 1.763 0 0 1-1.758-1.759v-14.058c0-.97.789-1.758 1.758-1.758h3.515c2.899 0 5.27 2.37 5.27 5.273 0 2.899-2.371 5.27-5.27 5.27h-1.757v5.273c0 .965-.793 1.758-1.758 1.758m1.758-10.548h1.757c.965 0 1.754-.789 1.754-1.754a1.76 1.76 0 0 0-1.754-1.758h-1.757Zm18.8 10.549h-.261c-.97-.177-1.668-1.056-1.496-2.024.175-2.02 0-3.602-.7-4.391-.441-.527-.968-.617-1.054-.617h-1.672v5.273c0 .965-.79 1.758-1.758 1.758a1.766 1.766 0 0 1-1.758-1.758v-14.058c0-.97.793-1.758 1.758-1.758h3.43c2.898 0 5.27 2.37 5.27 5.273 0 1.403-.528 2.723-1.493 3.688 1.316 1.582 1.844 3.953 1.406 7.031-.09.879-.793 1.582-1.672 1.582m-5.183-10.548h1.758c.878 0 1.668-.789 1.668-1.754a1.76 1.76 0 0 0-1.754-1.758h-1.672ZM164.7 252.04c-4.833 0-8.7-3.958-8.7-8.79s3.867-8.785 8.7-8.785c4.831 0 8.784 3.953 8.784 8.785s-3.953 8.79-8.785 8.79m0-14.06c-2.813 0-5.184 2.372-5.184 5.27 0 2.902 2.37 5.273 5.183 5.273 2.899 0 5.274-2.37 5.274-5.273 0-2.898-2.375-5.27-5.274-5.27m19.068 14.06h-.176c-3.164 0-5.8-2.638-5.8-5.802v-6.062c0-3.164 2.636-5.711 5.8-5.711h.265c1.754 0 3.25.789 4.305 2.11.613.788.438 1.843-.265 2.46-.79.613-1.934.438-2.547-.265-.352-.528-.88-.79-1.493-.79h-.265c-1.23 0-2.285 1.055-2.285 2.196v6.062c0 1.23 1.054 2.285 2.285 2.285h.176c1.14 0 2.02-.968 2.02-2.02v-1.933h-1.231a1.76 1.76 0 0 1-1.754-1.757c0-.97.789-1.758 1.754-1.758h2.988a1.76 1.76 0 0 1 1.758 1.757v3.692c0 2.984-2.461 5.535-5.535 5.535m0 0" fill-rule="evenodd"/><g clip-path="url(#a)"><path fill="#ffed00" d="M245.45 262.492h-115.9c-8.609 0-15.55-7.027-15.55-15.55v-52.81c0-8.609 6.941-15.55 15.55-15.55h115.9c8.523 0 15.55 6.941 15.55 15.55v52.81c0 8.523-7.027 15.55-15.55 15.55m-115.9-80.394a12 12 0 0 0-12.034 12.035v52.808c0 6.59 5.359 12.04 12.035 12.04h115.898c6.59 0 12.035-5.45 12.035-12.04v-52.808c0-6.676-5.445-12.035-12.035-12.035Zm0 0" fill-rule="evenodd"/></g><path fill="#ffed00" d="M187.457 137.988c-4.922 0-8.875-4.043-8.875-8.965a8.85 8.85 0 0 1 8.875-8.87c4.918 0 8.961 3.952 8.961 8.87 0 4.922-4.043 8.965-8.961 8.965m0-14.324c-2.988 0-5.36 2.461-5.36 5.36 0 2.988 2.458 5.449 5.36 5.449 2.988 0 5.445-2.461 5.445-5.45 0-2.898-2.457-5.359-5.445-5.359m-25.57 58.434a1.5 1.5 0 0 1-.88-.266c-.878-.437-1.14-1.492-.702-2.371l21.441-37.082c.527-.875 1.582-1.14 2.371-.7.88.524 1.14 1.579.703 2.458l-21.441 37.082c-.352.527-.875.879-1.492.879m-11.95 0c-.265 0-.617-.09-.878-.266-.88-.437-1.141-1.582-.614-2.371l25.39-42.879c.528-.793 1.583-1.055 2.376-.617.875.527 1.14 1.582.613 2.46L151.43 181.22c-.262.527-.88.879-1.493.879m63.176-.001c-.617 0-1.23-.352-1.492-.88l-21.441-37.081c-.528-.88-.176-1.934.617-2.457.875-.442 1.93-.176 2.371.699l21.437 37.082a1.7 1.7 0 0 1-.613 2.371 1.7 1.7 0 0 1-.879.266m11.95 0c-.614 0-1.231-.352-1.583-.88l-25.394-42.792c-.438-.88-.172-1.934.617-2.461.879-.438 1.934-.176 2.461.617l25.39 42.879c.442.789.176 1.934-.613 2.371a1.7 1.7 0 0 1-.879.266m0 0" fill-rule="evenodd"/><g clip-path="url(#b)"><path fill="#ffed00" d="M187.457 145.633c-9.14 0-16.52-7.469-16.52-16.61 0-9.046 7.38-16.515 16.52-16.515 9.137 0 16.606 7.469 16.606 16.515 0 9.141-7.47 16.61-16.606 16.61m0-29.613c-7.117 0-13.004 5.886-13.004 13.003 0 7.207 5.887 13.094 13.004 13.094 7.203 0 13.09-5.887 13.09-13.094 0-7.117-5.887-13.003-13.09-13.003m0 0" fill-rule="evenodd"/></g></svg>