<svg xmlns="http://www.w3.org/2000/svg" xmlns:xlink="http://www.w3.org/1999/xlink" width="500" zoomAndPan="magnify" viewBox="0 0 375 374.999991" height="500" preserveAspectRatio="xMidYMid meet" version="1.0"><defs><clipPath id="d5fc861079"><path d="M 112.5 158 L 262.5 158 L 262.5 233.894531 L 112.5 233.894531 Z M 112.5 158 " clip-rule="nonzero"/></clipPath></defs><g clip-path="url(#d5fc861079)"><path fill="#ff3131" d="M 248.972656 233.613281 L 126.027344 233.613281 C 118.570312 233.613281 112.5 227.546875 112.5 220.089844 L 112.5 171.625 C 112.5 164.167969 118.570312 158.101562 126.027344 158.101562 L 248.972656 158.101562 C 256.429688 158.101562 262.5 164.167969 262.5 171.625 L 262.5 220.089844 C 262.5 227.546875 256.429688 233.613281 248.972656 233.613281 Z M 126.027344 161.394531 C 120.382812 161.394531 115.789062 165.980469 115.789062 171.625 L 115.789062 220.089844 C 115.789062 225.734375 120.382812 230.328125 126.027344 230.328125 L 248.972656 230.328125 C 254.617188 230.328125 259.210938 225.738281 259.210938 220.089844 L 259.210938 171.625 C 259.210938 165.980469 254.617188 161.394531 248.972656 161.394531 Z M 126.027344 161.394531 " fill-opacity="1" fill-rule="nonzero"/></g><path fill="#ff3131" d="M 125.464844 161.023438 L 123.679688 158.257812 L 179.875 122.308594 L 181.660156 125.070312 Z M 125.464844 161.023438 " fill-opacity="1" fill-rule="nonzero"/><path fill="#ff3131" d="M 249.1875 161.128906 L 191.109375 125.070312 L 192.894531 122.308594 L 251.320312 158.582031 Z M 249.1875 161.128906 " fill-opacity="1" fill-rule="nonzero"/><path fill="#ff3131" d="M 188.226562 111.964844 C 188.726562 112.082031 189.207031 112.25 189.671875 112.460938 C 190.140625 112.671875 190.582031 112.929688 190.996094 113.230469 C 191.414062 113.527344 191.792969 113.867188 192.144531 114.242188 C 192.492188 114.617188 192.800781 115.023438 193.070312 115.457031 C 193.339844 115.894531 193.566406 116.351562 193.746094 116.832031 C 193.925781 117.3125 194.054688 117.804688 194.136719 118.3125 C 194.21875 118.816406 194.25 119.324219 194.230469 119.839844 C 194.214844 120.351562 194.144531 120.855469 194.027344 121.355469 C 193.910156 121.851562 193.746094 122.335938 193.53125 122.800781 C 193.320312 123.269531 193.0625 123.707031 192.765625 124.125 C 192.464844 124.539062 192.125 124.921875 191.75 125.273438 C 191.375 125.621094 190.972656 125.929688 190.535156 126.199219 C 190.097656 126.46875 189.640625 126.695312 189.160156 126.871094 C 188.679688 127.050781 188.1875 127.183594 187.683594 127.265625 C 187.175781 127.347656 186.667969 127.378906 186.15625 127.359375 C 185.644531 127.34375 185.136719 127.273438 184.640625 127.15625 C 184.140625 127.039062 183.65625 126.875 183.191406 126.660156 C 182.726562 126.449219 182.285156 126.191406 181.867188 125.890625 C 181.453125 125.59375 181.070312 125.253906 180.722656 124.878906 C 180.371094 124.503906 180.0625 124.097656 179.792969 123.664062 C 179.523438 123.226562 179.300781 122.769531 179.121094 122.289062 C 178.941406 121.808594 178.8125 121.316406 178.730469 120.808594 C 178.648438 120.304688 178.613281 119.796875 178.632812 119.285156 C 178.652344 118.769531 178.71875 118.265625 178.835938 117.765625 C 178.953125 117.269531 179.121094 116.785156 179.332031 116.320312 C 179.546875 115.855469 179.800781 115.414062 180.101562 114.996094 C 180.402344 114.582031 180.738281 114.199219 181.113281 113.847656 C 181.488281 113.5 181.894531 113.191406 182.328125 112.921875 C 182.765625 112.652344 183.222656 112.429688 183.703125 112.25 C 184.183594 112.070312 184.675781 111.9375 185.183594 111.855469 C 185.6875 111.773438 186.199219 111.742188 186.710938 111.761719 C 187.222656 111.777344 187.726562 111.847656 188.226562 111.964844 Z M 188.226562 111.964844 " fill-opacity="1" fill-rule="nonzero"/><path fill="#ff3131" d="M 147.933594 199.605469 C 147.933594 200.253906 147.773438 200.957031 147.453125 201.707031 C 147.136719 202.460938 146.632812 203.199219 145.949219 203.925781 C 145.265625 204.652344 144.394531 205.246094 143.328125 205.695312 C 142.265625 206.148438 141.027344 206.375 139.613281 206.375 C 138.539062 206.375 137.5625 206.269531 136.683594 206.070312 C 135.800781 205.867188 135.003906 205.550781 134.289062 205.117188 C 133.570312 204.6875 132.910156 204.121094 132.308594 203.417969 C 131.773438 202.777344 131.316406 202.0625 130.9375 201.273438 C 130.554688 200.480469 130.269531 199.636719 130.082031 198.742188 C 129.894531 197.847656 129.796875 196.890625 129.796875 195.882812 C 129.796875 194.246094 130.035156 192.78125 130.507812 191.488281 C 130.988281 190.191406 131.667969 189.082031 132.558594 188.164062 C 133.449219 187.246094 134.484375 186.542969 135.679688 186.0625 C 136.875 185.582031 138.144531 185.339844 139.496094 185.339844 C 141.140625 185.339844 142.609375 185.667969 143.890625 186.324219 C 145.175781 186.980469 146.160156 187.792969 146.84375 188.757812 C 147.53125 189.722656 147.871094 190.636719 147.871094 191.5 C 147.871094 191.972656 147.703125 192.386719 147.371094 192.746094 C 147.039062 193.109375 146.632812 193.285156 146.160156 193.285156 C 145.636719 193.285156 145.238281 193.160156 144.976562 192.910156 C 144.710938 192.664062 144.417969 192.230469 144.09375 191.621094 C 143.558594 190.613281 142.925781 189.859375 142.199219 189.363281 C 141.472656 188.863281 140.578125 188.613281 139.515625 188.613281 C 137.820312 188.613281 136.472656 189.253906 135.46875 190.539062 C 134.464844 191.824219 133.964844 193.652344 133.964844 196.019531 C 133.964844 197.597656 134.183594 198.917969 134.628906 199.964844 C 135.074219 201.015625 135.703125 201.800781 136.519531 202.320312 C 137.335938 202.835938 138.285156 203.097656 139.378906 203.097656 C 140.5625 203.097656 141.5625 202.800781 142.382812 202.214844 C 143.203125 201.628906 143.816406 200.769531 144.234375 199.628906 C 144.40625 199.09375 144.628906 198.652344 144.886719 198.316406 C 145.144531 197.980469 145.5625 197.808594 146.132812 197.808594 C 146.625 197.808594 147.042969 197.984375 147.394531 198.324219 C 147.746094 198.667969 147.933594 199.09375 147.933594 199.605469 Z M 147.933594 199.605469 " fill-opacity="1" fill-rule="nonzero"/><path fill="#ff3131" d="M 155.671875 187.839844 L 155.671875 202.644531 L 164.023438 202.644531 C 164.691406 202.644531 165.203125 202.808594 165.558594 203.128906 C 165.914062 203.453125 166.09375 203.863281 166.09375 204.347656 C 166.09375 204.851562 165.917969 205.253906 165.566406 205.5625 C 165.214844 205.871094 164.703125 206.027344 164.023438 206.027344 L 154.078125 206.027344 C 153.183594 206.027344 152.535156 205.832031 152.140625 205.433594 C 151.75 205.035156 151.550781 204.390625 151.550781 203.503906 L 151.550781 187.839844 C 151.550781 187.003906 151.738281 186.382812 152.113281 185.964844 C 152.488281 185.546875 152.980469 185.339844 153.589844 185.339844 C 154.210938 185.339844 154.710938 185.546875 155.09375 185.960938 C 155.480469 186.371094 155.671875 186.996094 155.671875 187.839844 Z M 155.671875 187.839844 " fill-opacity="1" fill-rule="nonzero"/><path fill="#ff3131" d="M 176.328125 185.339844 C 178.4375 185.339844 180.25 185.769531 181.761719 186.625 C 183.277344 187.484375 184.421875 188.699219 185.199219 190.273438 C 185.976562 191.847656 186.367188 193.703125 186.367188 195.828125 C 186.367188 197.398438 186.15625 198.828125 185.726562 200.117188 C 185.300781 201.402344 184.664062 202.515625 183.816406 203.457031 C 182.960938 204.402344 181.917969 205.121094 180.679688 205.625 C 179.441406 206.125 178.023438 206.375 176.417969 206.375 C 174.828125 206.375 173.40625 206.117188 172.144531 205.605469 C 170.886719 205.089844 169.835938 204.367188 168.992188 203.433594 C 168.148438 202.503906 167.515625 201.378906 167.085938 200.066406 C 166.65625 198.753906 166.4375 197.332031 166.4375 195.804688 C 166.4375 194.242188 166.664062 192.808594 167.113281 191.5 C 167.5625 190.199219 168.210938 189.085938 169.0625 188.171875 C 169.917969 187.257812 170.953125 186.554688 172.171875 186.074219 C 173.390625 185.585938 174.777344 185.339844 176.328125 185.339844 Z M 182.183594 195.804688 C 182.183594 194.3125 181.945312 193.023438 181.460938 191.933594 C 180.980469 190.839844 180.296875 190.015625 179.398438 189.457031 C 178.507812 188.898438 177.484375 188.617188 176.324219 188.617188 C 175.5 188.617188 174.742188 188.773438 174.042969 189.082031 C 173.34375 189.390625 172.742188 189.839844 172.238281 190.4375 C 171.730469 191.027344 171.335938 191.785156 171.042969 192.707031 C 170.75 193.625 170.605469 194.660156 170.605469 195.808594 C 170.605469 196.964844 170.75 198.011719 171.042969 198.945312 C 171.332031 199.878906 171.746094 200.65625 172.273438 201.269531 C 172.804688 201.882812 173.417969 202.34375 174.109375 202.652344 C 174.796875 202.957031 175.550781 203.113281 176.375 203.113281 C 177.429688 203.113281 178.402344 202.847656 179.28125 202.320312 C 180.164062 201.792969 180.867188 200.980469 181.390625 199.878906 C 181.925781 198.765625 182.183594 197.410156 182.183594 195.804688 Z M 182.183594 195.804688 " fill-opacity="1" fill-rule="nonzero"/><path fill="#ff3131" d="M 205.339844 199.925781 C 205.339844 201.152344 205.023438 202.257812 204.390625 203.238281 C 203.757812 204.21875 202.828125 204.988281 201.609375 205.539062 C 200.390625 206.09375 198.941406 206.375 197.269531 206.375 C 195.261719 206.375 193.609375 205.996094 192.300781 205.234375 C 191.375 204.691406 190.621094 203.960938 190.046875 203.050781 C 189.46875 202.140625 189.179688 201.253906 189.179688 200.394531 C 189.179688 199.890625 189.351562 199.464844 189.699219 199.109375 C 190.046875 198.753906 190.484375 198.574219 191.023438 198.574219 C 191.460938 198.574219 191.828125 198.714844 192.125 198.992188 C 192.425781 199.269531 192.683594 199.679688 192.894531 200.222656 C 193.152344 200.871094 193.433594 201.414062 193.734375 201.847656 C 194.035156 202.28125 194.457031 202.636719 195.003906 202.917969 C 195.546875 203.199219 196.265625 203.339844 197.15625 203.339844 C 198.375 203.339844 199.367188 203.054688 200.132812 202.488281 C 200.898438 201.921875 201.277344 201.207031 201.277344 200.359375 C 201.277344 199.683594 201.070312 199.136719 200.65625 198.714844 C 200.246094 198.292969 199.714844 197.972656 199.0625 197.75 C 198.414062 197.527344 197.539062 197.289062 196.449219 197.042969 C 194.984375 196.699219 193.761719 196.300781 192.777344 195.839844 C 191.792969 195.382812 191.011719 194.757812 190.433594 193.964844 C 189.859375 193.175781 189.566406 192.195312 189.566406 191.019531 C 189.566406 189.898438 189.871094 188.902344 190.480469 188.035156 C 191.089844 187.167969 191.976562 186.5 193.128906 186.03125 C 194.289062 185.5625 195.648438 185.332031 197.207031 185.332031 C 198.453125 185.332031 199.539062 185.488281 200.445312 185.796875 C 201.355469 186.105469 202.117188 186.519531 202.714844 187.027344 C 203.316406 187.542969 203.757812 188.078125 204.03125 188.644531 C 204.308594 189.207031 204.449219 189.761719 204.449219 190.296875 C 204.449219 190.789062 204.277344 191.230469 203.929688 191.621094 C 203.582031 192.015625 203.152344 192.214844 202.632812 192.214844 C 202.15625 192.214844 201.800781 192.097656 201.558594 191.863281 C 201.3125 191.628906 201.046875 191.238281 200.761719 190.703125 C 200.390625 189.933594 199.945312 189.335938 199.429688 188.910156 C 198.910156 188.476562 198.078125 188.261719 196.929688 188.261719 C 195.867188 188.261719 195.007812 188.496094 194.359375 188.960938 C 193.707031 189.429688 193.378906 189.992188 193.378906 190.648438 C 193.378906 191.054688 193.492188 191.40625 193.710938 191.703125 C 193.929688 191.996094 194.234375 192.25 194.625 192.464844 C 195.015625 192.675781 195.40625 192.847656 195.804688 192.96875 C 196.203125 193.089844 196.859375 193.261719 197.773438 193.492188 C 198.921875 193.761719 199.960938 194.054688 200.886719 194.378906 C 201.816406 194.703125 202.609375 195.097656 203.257812 195.558594 C 203.910156 196.023438 204.421875 196.605469 204.789062 197.3125 C 205.15625 198.03125 205.339844 198.898438 205.339844 199.925781 Z M 205.339844 199.925781 " fill-opacity="1" fill-rule="nonzero"/><path fill="#ff3131" d="M 222.238281 188.867188 L 212.957031 188.867188 L 212.957031 193.863281 L 221.503906 193.863281 C 222.132812 193.863281 222.601562 194.003906 222.910156 194.285156 C 223.21875 194.566406 223.375 194.941406 223.375 195.402344 C 223.375 195.859375 223.21875 196.238281 222.914062 196.53125 C 222.609375 196.820312 222.136719 196.964844 221.5 196.964844 L 212.953125 196.964844 L 212.953125 202.75 L 222.554688 202.75 C 223.199219 202.75 223.6875 202.902344 224.015625 203.199219 C 224.34375 203.5 224.507812 203.898438 224.507812 204.402344 C 224.507812 204.882812 224.34375 205.273438 224.015625 205.574219 C 223.6875 205.871094 223.199219 206.023438 222.554688 206.023438 L 211.355469 206.023438 C 210.460938 206.023438 209.8125 205.824219 209.417969 205.425781 C 209.023438 205.027344 208.828125 204.386719 208.828125 203.5 L 208.828125 188.210938 C 208.828125 187.621094 208.917969 187.136719 209.089844 186.761719 C 209.265625 186.386719 209.539062 186.113281 209.914062 185.941406 C 210.289062 185.769531 210.769531 185.683594 211.351562 185.683594 L 222.226562 185.683594 C 222.882812 185.683594 223.367188 185.828125 223.6875 186.121094 C 224.007812 186.410156 224.164062 186.792969 224.164062 187.261719 C 224.164062 187.746094 224.007812 188.128906 223.6875 188.421875 C 223.386719 188.722656 222.894531 188.867188 222.238281 188.867188 Z M 222.238281 188.867188 " fill-opacity="1" fill-rule="nonzero"/><path fill="#ff3131" d="M 230.34375 185.6875 L 235.710938 185.6875 C 237.109375 185.6875 238.304688 185.820312 239.304688 186.078125 C 240.304688 186.335938 241.210938 186.824219 242.023438 187.535156 C 244.144531 189.347656 245.203125 192.105469 245.203125 195.804688 C 245.203125 197.023438 245.09375 198.136719 244.882812 199.144531 C 244.671875 200.152344 244.34375 201.0625 243.898438 201.875 C 243.453125 202.683594 242.886719 203.40625 242.195312 204.042969 C 241.648438 204.535156 241.050781 204.925781 240.402344 205.226562 C 239.757812 205.519531 239.058594 205.730469 238.316406 205.847656 C 237.570312 205.972656 236.734375 206.027344 235.800781 206.027344 L 230.433594 206.027344 C 229.683594 206.027344 229.121094 205.914062 228.742188 205.683594 C 228.359375 205.460938 228.113281 205.140625 228 204.730469 C 227.882812 204.316406 227.828125 203.78125 227.828125 203.125 L 227.828125 188.210938 C 227.828125 187.324219 228.023438 186.675781 228.421875 186.285156 C 228.8125 185.890625 229.453125 185.6875 230.34375 185.6875 Z M 231.9375 188.949219 L 231.9375 202.753906 L 235.058594 202.753906 C 235.742188 202.753906 236.277344 202.738281 236.667969 202.699219 C 237.054688 202.660156 237.460938 202.566406 237.875 202.421875 C 238.292969 202.273438 238.65625 202.066406 238.960938 201.800781 C 240.335938 200.632812 241.027344 198.625 241.027344 195.777344 C 241.027344 193.769531 240.722656 192.265625 240.117188 191.265625 C 239.511719 190.269531 238.761719 189.628906 237.875 189.359375 C 236.992188 189.085938 235.917969 188.949219 234.65625 188.949219 Z M 231.9375 188.949219 " fill-opacity="1" fill-rule="nonzero"/></svg>